<?xml version="1.0" encoding="utf-8"?>
<!-- Generator: Adobe Illustrator 20.0.0, SVG Export Plug-In . SVG Version: 6.00 Build 0)  -->
<svg version="1.1" id="Layer_1" xmlns="http://www.w3.org/2000/svg" xmlns:xlink="http://www.w3.org/1999/xlink" x="0px" y="0px"
	 viewBox="0 0 22 23" style="enable-background:new 0 0 22 23;" xml:space="preserve">
<style type="text/css">
	.st0{filter:url(#Adobe_OpacityMaskFilter);}
	.st1{fill:#FFFFFF;}
	.st2{mask:url(#mask-2);fill:#FBBC05;}
	.st3{filter:url(#Adobe_OpacityMaskFilter_1_);}
	.st4{mask:url(#mask-4);fill:#EA4335;}
	.st5{filter:url(#Adobe_OpacityMaskFilter_2_);}
	.st6{mask:url(#mask-6);fill:#34A853;}
	.st7{filter:url(#Adobe_OpacityMaskFilter_3_);}
	.st8{mask:url(#mask-8);fill:#4285F4;}
</style>
<g id="Clipped">
	<g id="SVGID_1_">
	</g>
	<defs>
		<filter id="Adobe_OpacityMaskFilter" filterUnits="userSpaceOnUse" x="-1" y="4.7" width="8.7" height="13.6">
			<feColorMatrix  type="matrix" values="1 0 0 0 0  0 1 0 0 0  0 0 1 0 0  0 0 0 1 0"/>
		</filter>
	</defs>
	<mask maskUnits="userSpaceOnUse" x="-1" y="4.7" width="8.7" height="13.6" id="mask-2">
		<g class="st0">
			<path id="path-1" class="st1" d="M21.7,9.4h-1.3h-4.2h-5v4.4h6c-0.6,2.8-2.9,4.4-6,4.4c-3.7,0-6.7-3-6.7-6.8s3-6.8,6.7-6.8
				c1.6,0,3,0.6,4.1,1.5l3.3-3.3c-2-1.8-4.6-2.9-7.4-2.9C5,0,0,5.1,0,11.5S5,23,11.3,23C16.9,23,22,18.8,22,11.5
				C22,10.8,21.9,10.1,21.7,9.4L21.7,9.4z"/>
		</g>
	</mask>
	<polygon id="Shape" class="st2" points="-1,18.3 -1,4.7 7.7,11.5 	"/>
</g>
<g id="Clipped_1_">
	<g id="SVGID_2_">
	</g>
	<defs>
		<filter id="Adobe_OpacityMaskFilter_1_" filterUnits="userSpaceOnUse" x="-1" y="-1" width="24.6" height="12.5">
			<feColorMatrix  type="matrix" values="1 0 0 0 0  0 1 0 0 0  0 0 1 0 0  0 0 0 1 0"/>
		</filter>
	</defs>
	<mask maskUnits="userSpaceOnUse" x="-1" y="-1" width="24.6" height="12.5" id="mask-4">
		<g class="st3">
			<path id="path-3" class="st1" d="M21.7,9.4h-1.3h-4.2h-5v4.4h6c-0.6,2.8-2.9,4.4-6,4.4c-3.7,0-6.7-3-6.7-6.8s3-6.8,6.7-6.8
				c1.6,0,3,0.6,4.1,1.5l3.3-3.3c-2-1.8-4.6-2.9-7.4-2.9C5,0,0,5.1,0,11.5S5,23,11.3,23C16.9,23,22,18.8,22,11.5
				C22,10.8,21.9,10.1,21.7,9.4L21.7,9.4z"/>
		</g>
	</mask>
	<polygon id="Shape_1_" class="st4" points="-1,4.7 7.7,11.5 11.3,8.3 23.5,6.3 23.5,-1 -1,-1 	"/>
</g>
<g id="Clipped_2_">
	<g id="SVGID_3_">
	</g>
	<defs>
		<filter id="Adobe_OpacityMaskFilter_2_" filterUnits="userSpaceOnUse" x="-1" y="-1" width="24.6" height="25.1">
			<feColorMatrix  type="matrix" values="1 0 0 0 0  0 1 0 0 0  0 0 1 0 0  0 0 0 1 0"/>
		</filter>
	</defs>
	<mask maskUnits="userSpaceOnUse" x="-1" y="-1" width="24.6" height="25.1" id="mask-6">
		<g class="st5">
			<path id="path-5" class="st1" d="M21.7,9.4h-1.3h-4.2h-5v4.4h6c-0.6,2.8-2.9,4.4-6,4.4c-3.7,0-6.7-3-6.7-6.8s3-6.8,6.7-6.8
				c1.6,0,3,0.6,4.1,1.5l3.3-3.3c-2-1.8-4.6-2.9-7.4-2.9C5,0,0,5.1,0,11.5S5,23,11.3,23C16.9,23,22,18.8,22,11.5
				C22,10.8,21.9,10.1,21.7,9.4L21.7,9.4z"/>
		</g>
	</mask>
	<polygon id="Shape_2_" class="st6" points="-1,18.3 14.3,6.3 18.4,6.8 23.5,-1 23.5,24 -1,24 	"/>
</g>
<g id="Clipped_3_">
	<g id="SVGID_4_">
	</g>
	<defs>
		<filter id="Adobe_OpacityMaskFilter_3_" filterUnits="userSpaceOnUse" x="5.6" y="4.7" width="17.9" height="19.3">
			<feColorMatrix  type="matrix" values="1 0 0 0 0  0 1 0 0 0  0 0 1 0 0  0 0 0 1 0"/>
		</filter>
	</defs>
	<mask maskUnits="userSpaceOnUse" x="5.6" y="4.7" width="17.9" height="19.3" id="mask-8">
		<g class="st7">
			<path id="path-7" class="st1" d="M21.7,9.4h-1.3h-4.2h-5v4.4h6c-0.6,2.8-2.9,4.4-6,4.4c-3.7,0-6.7-3-6.7-6.8s3-6.8,6.7-6.8
				c1.6,0,3,0.6,4.1,1.5l3.3-3.3c-2-1.8-4.6-2.9-7.4-2.9C5,0,0,5.1,0,11.5S5,23,11.3,23C16.9,23,22,18.8,22,11.5
				C22,10.8,21.9,10.1,21.7,9.4L21.7,9.4z"/>
		</g>
	</mask>
	<polygon id="Shape_3_" class="st8" points="23.5,24 7.7,11.5 5.6,9.9 23.5,4.7 	"/>
</g>
</svg>
